HIERARCHY
ROOT RootJoint
{
    OFFSET   0.000000   0.000000   0.000000
    CHANNELS 6 Xposition Yposition Zposition Xrotation Yrotation Zrotation
    JOINT pelvis_lowerback
    {
        OFFSET   0.000000   0.093605   0.000000
        CHANNELS 3 Xrotation Yrotation Zrotation
        JOINT lowerback_torso
        {
            OFFSET   0.000000   0.100000   0.000000
            CHANNELS 3 Xrotation Yrotation Zrotation
            JOINT torso_head
            {
                OFFSET   0.000000   0.282350   0.000000
                CHANNELS 3 Xrotation Yrotation Zrotation
                End Site
                {
                    OFFSET   0.000000   0.192650   0.000000
                }
            }
            JOINT rTorso_Clavicle
            {
                OFFSET  -0.001000   0.157500   0.000000
                CHANNELS 3 Xrotation Yrotation Zrotation
                JOINT rShoulder
                {
                    OFFSET  -0.117647   0.000000   0.000000
                    CHANNELS 3 Xrotation Yrotation Zrotation
                    JOINT rElbow
                    {
                        OFFSET  -0.245000   0.000000   0.000000
                        CHANNELS 3 Xrotation Yrotation Zrotation
                        JOINT rWrist
                        {
                            OFFSET  -0.240000   0.000000   0.000000
                            CHANNELS 3 Xrotation Yrotation Zrotation
                            End Site
                            {
                                OFFSET  -0.116353  -0.002500   0.000000
                            }
                        }
                    }
                }
            }
            JOINT lTorso_Clavicle
            {
                OFFSET   0.001000   0.157500   0.000000
                CHANNELS 3 Xrotation Yrotation Zrotation
                JOINT lShoulder
                {
                    OFFSET   0.117647   0.000000   0.000000
                    CHANNELS 3 Xrotation Yrotation Zrotation
                    JOINT lElbow
                    {
                        OFFSET   0.245000   0.000000   0.000000
                        CHANNELS 3 Xrotation Yrotation Zrotation
                        JOINT lWrist
                        {
                            OFFSET   0.240000   0.000000   0.000000
                            CHANNELS 3 Xrotation Yrotation Zrotation
                            End Site
                            {
                                OFFSET   0.116353  -0.002500   0.000000
                            }
                        }
                    }
                }
            }
        }
    }
    JOINT rHip
    {
        OFFSET  -0.100000  -0.051395   0.000000
        CHANNELS 3 Xrotation Yrotation Zrotation
        JOINT rKnee
        {
            OFFSET   0.000000  -0.410000   0.000000
            CHANNELS 3 Xrotation Yrotation Zrotation
            JOINT rAnkle
            {
                OFFSET   0.000000  -0.390000   0.000000
                CHANNELS 3 Xrotation Yrotation Zrotation
                JOINT rToeJoint
                {
                    OFFSET   0.000000  -0.050000   0.130000
                    CHANNELS 3 Xrotation Yrotation Zrotation
                    End Site
                    {
                        OFFSET  -0.010000   0.002000   0.060000
                    }
                }
            }
        }
    }
    JOINT lHip
    {
        OFFSET   0.100000  -0.051395   0.000000
        CHANNELS 3 Xrotation Yrotation Zrotation
        JOINT lKnee
        {
            OFFSET   0.000000  -0.410000   0.000000
            CHANNELS 3 Xrotation Yrotation Zrotation
            JOINT lAnkle
            {
                OFFSET   0.000000  -0.390000   0.000000
                CHANNELS 3 Xrotation Yrotation Zrotation
                JOINT lToeJoint
                {
                    OFFSET   0.000000  -0.050000   0.130000
                    CHANNELS 3 Xrotation Yrotation Zrotation
                    End Site
                    {
                        OFFSET   0.010000   0.002000   0.060000
                    }
                }
            }
        }
    }
}
MOTION
Frames: 15
Frame Time:   0.008333
 -2.326411   0.912949   4.498998   2.656149   4.534750  -3.472649   4.912119  -6.525924   1.779258   1.355079  -8.410588   3.044786  -6.589626   0.906216  -0.455202   8.171382 -10.347834   1.815436  20.826540  -0.471912  50.672010 -179.791326  85.968502 179.800437  -1.319583   3.670898  -5.267483   2.100887  -1.116431   0.244439   1.176784 -11.097924 -52.899838 179.960645 -70.458764 179.964254  -0.825538  -7.690066   2.912766 -37.352725  -4.429931  -0.015893  50.939941   0.077914   0.010205 -12.325408  -6.526172   6.338384   0.591099  -0.011532   0.003557  16.046452  -6.379164   2.779558  22.214804   0.001310  -0.000067  16.619713  -1.338207  -0.196024 -38.837034  -0.011850  -0.003297
 -2.326046   0.914900   4.514045   2.428327   4.044380  -3.212431   5.049159  -6.596828   1.710187   1.572012  -8.462423   3.074595  -6.567043   1.042103  -0.654358   8.122701 -10.494038   1.958061  20.754697  -0.786690  50.667298 -179.822705  85.686750 179.831509  -1.233011   3.646966  -5.485086   1.996107  -1.324016   0.268833   1.326364 -11.316365 -52.898876 179.973006 -70.638723 179.975789  -0.785366  -8.009911   3.225200 -36.015787  -4.486678   0.528605  48.378895   0.077332   0.014296 -13.186036  -6.216626   6.245923   0.700035  -0.009972   0.003179  15.685378  -5.900476   2.454252  25.376837  -0.000630   0.003182  16.004537  -1.258387  -0.476671 -35.545058  -0.006648   0.008217
 -2.325817   0.915995   4.529638   2.091799   3.478236  -2.913677   5.101714  -6.565871   1.563484   1.807192  -8.429231   3.032700  -6.528857   1.175388  -0.852342   8.058220 -10.605174   2.136090  20.669042  -1.055283  50.680286 -179.848441  85.427020 179.856787  -1.150917   3.600798  -5.669323   1.982709  -1.483434   0.198420   1.542557 -11.513291 -52.941224 179.982456 -70.844628 179.984858  -0.762612  -8.139781   3.372944 -34.561898  -4.487975   1.026072  46.053919   0.075092   0.018981 -13.987593  -5.926104   6.162107   0.795813  -0.008576   0.002698  15.449378  -5.409112   2.142701  28.961549  -0.004512   0.005559  15.425956  -1.174933  -0.738221 -32.703965  -0.003964   0.014543
 -2.325729   0.916242   4.545562   1.756424   2.881576  -2.605561   5.062033  -6.481698   1.372720   1.981904  -8.341776   2.947543  -6.499569   1.301628  -1.041187   7.985998 -10.691954   2.316099  20.578119  -1.290435  50.698176 -179.869031  85.180346 179.876841  -1.070625   3.578554  -5.816121   2.019318  -1.597001   0.082429   1.788497 -11.686617 -53.007216 179.989023 -71.047620 179.991226  -0.749141  -8.178318   3.439176 -33.126022  -4.473903   1.471062  43.922152   0.071693   0.023408 -14.733349  -5.655120   6.087148   0.887104  -0.007384   0.002201  15.302995  -4.944569   1.885673  32.610476  -0.009952   0.007399  14.893356  -1.094371  -0.981393 -30.102989  -0.003424   0.017992
 -2.325760   0.915674   4.561686   1.457689   2.274728  -2.293807   4.942336  -6.363348   1.151793   2.086668  -8.219321   2.835756  -6.482903   1.420610  -1.219520   7.905810 -10.758271   2.489023  20.481550  -1.498786  50.715562 -179.885712  84.945647 179.892944  -0.990960   3.586746  -5.945192   2.079586  -1.678419  -0.051238   2.041850 -11.839690 -53.081363 179.993437 -71.241501 179.995482  -0.739645  -8.180219   3.479551 -31.753479  -4.448087   1.862296  41.952475   0.067463   0.027090 -15.428009  -5.402407   6.019921   0.972398  -0.006351   0.001731  15.250091  -4.510476   1.688445  36.096306  -0.015836   0.009349  14.401613  -1.016371  -1.207265 -27.718781  -0.004411   0.019999
 -2.325881   0.914321   4.577900   1.205007   1.676514  -1.980841   4.765075  -6.224561   0.913337   2.129678  -8.076024   2.708454  -6.477693   1.532451  -1.387612   7.817466 -10.806104   2.651704  20.379030  -1.683909  50.730666 -179.899616  84.722273 179.906253  -0.911682   3.623995  -6.069362   2.147540  -1.739840  -0.187255   2.289165 -11.976787 -53.155513 179.996340 -71.423994 179.998218  -0.731620  -8.170604   3.520069 -30.459308  -4.412643   2.200104  40.124876   0.062674   0.029768 -16.075493  -5.166822   5.959375   1.051337  -0.005451   0.001312  15.264359  -4.108920   1.548176  39.386681  -0.021348   0.011804  13.944651  -0.940862  -1.417024 -25.534998  -0.006210   0.021448
 -2.326063   0.912206   4.594130   0.998105   1.094439  -1.667532   4.549310  -6.072306   0.666938   2.124215  -7.920011   2.572983  -6.481211   1.637475  -1.546010   7.722158 -10.837548   2.803169  20.271555  -1.848557  50.742845 -179.911527  84.509909 179.917575  -0.832840   3.686393  -6.192858   2.215331  -1.788588  -0.318563   2.524181 -12.101054 -53.226057 179.998216 -71.594446 179.999911  -0.723928  -8.161031   3.570093 -29.246658  -4.368956   2.488655  38.425605   0.057610   0.031447 -16.679227  -4.947213   5.904646   1.123998  -0.004667   0.000954  15.326806  -3.739231   1.457339  42.480955  -0.026025   0.014677  13.519262  -0.867886  -1.611806 -23.535060  -0.008253   0.022664
 -2.326199   0.909324   4.610155   0.584316   0.534185  -1.385668   4.550986  -5.975824   0.462544   2.233091  -7.719042   2.485813  -6.489678   1.638000  -1.667384   7.576439 -10.729035   2.985983  19.849566  -1.848170  50.671727 -179.924474  84.351359 179.929779  -0.769074   3.625710  -6.361097   2.269887  -1.709298  -0.497868   2.889872 -12.128725 -53.258268 -179.997704 -72.249378 -179.995500  -0.667612  -8.514787   3.657214 -27.989046  -4.226054   2.777845  37.905628   0.047962   0.027058 -17.538159  -4.823765   5.117438   1.222418  -0.003411   0.000546  15.242721  -3.157167   1.444893  46.323696  -0.027529   0.026220  12.242892  -0.435303  -1.668017 -21.693207  -0.012691   0.031540
 -2.326275   0.905812   4.626181   0.139169  -0.022112  -1.131938   4.565105  -5.823792   0.301658   2.380160  -7.455900   2.420320  -6.486236   1.629623  -1.775386   7.383211 -10.568866   3.169526  19.402270  -1.811540  50.597050 -179.936704  84.198859 179.941357  -0.703483   3.603077  -6.550101   2.387298  -1.594314  -0.708952   3.296164 -12.119935 -53.291629 -179.995802 -72.922913 -179.993048  -0.631413  -8.552314   3.707151 -26.624235  -4.063785   3.051323  37.676908   0.039115   0.022480 -18.331943  -4.703730   4.381420   1.291379  -0.002490   0.000259  15.056680  -2.600196   1.467719  50.260093  -0.028128   0.036144  11.050068  -0.025280  -1.710220 -20.058312  -0.015387   0.037009
 -2.326299   0.901675   4.642200  -0.280900  -0.576016  -0.885736   4.558592  -5.614618   0.162468   2.520417  -7.142281   2.368174  -6.480545   1.621633  -1.872792   7.177427 -10.388537   3.348379  18.962229  -1.756632  50.527208 -179.947864  84.051085 179.951953  -0.636292   3.622297  -6.720073   2.537965  -1.452533  -0.925155   3.713939 -12.093768 -53.328785 -179.996119 -73.567741 -179.993033  -0.606005  -8.451675   3.723702 -25.194227  -3.892625   3.289648  37.555572   0.031655   0.018450 -19.067412  -4.584102   3.695586   1.359251  -0.001757   0.000014  14.783655  -2.085636   1.502086  54.090114  -0.027978   0.043460   9.938699   0.358576  -1.740107 -18.564626  -0.017012   0.039937
 -2.326277   0.896911   4.658200  -0.656435  -1.127288  -0.638817   4.525526  -5.362006   0.037283   2.639579  -6.793644   2.325345  -6.476256   1.615223  -1.961558   6.969153 -10.198689   3.519632  18.537505  -1.690802  50.462146 -179.957717  83.909119 179.961318  -0.568600   3.670573  -6.863622   2.704069  -1.292138  -1.133796   4.127895 -12.055235 -53.365093 -179.997912 -74.175678 -179.994764  -0.585411  -8.299693   3.732626 -23.734338  -3.715549   3.488632  37.492201   0.025495   0.015026 -19.750146  -4.465541   3.056550   1.425891  -0.001181  -0.000191  14.451082  -1.609997   1.540898  57.686074  -0.027178   0.048242   8.902279   0.717499  -1.759435 -17.201924  -0.017828   0.040987
 -2.326218   0.891509   4.674158  -0.983286  -1.669073  -0.390563   4.472468  -5.081926  -0.074297   2.735702  -6.425007   2.291098  -6.474466   1.610249  -2.042881   6.761743 -10.004313   3.681184  18.129944  -1.618025  50.401139 -179.966212  83.773154 179.969394  -0.501019   3.740217  -6.985679   2.874068  -1.121892  -1.328346   4.528536 -12.008312 -53.397727 179.999571 -74.745581 -179.997445  -0.567246  -8.130347   3.749599 -22.268482  -3.535565   3.651245  37.468791   0.020442   0.012146 -20.384333  -4.348734   2.461104   1.490542  -0.000735  -0.000352  14.065372  -1.171344   1.585477  61.036427  -0.025907   0.051062   7.933926   1.052894  -1.769945 -15.960426  -0.018022   0.040726
 -2.326127   0.885456   4.690055  -1.263413  -2.199359  -0.141464   4.406536  -4.785652  -0.172336   2.812011  -6.047193   2.264921  -6.474811   1.606464  -2.117597   6.557202  -9.808700   3.832159  17.740209  -1.540962  50.343586 -179.973400  83.643225 179.976224  -0.433877   3.826358  -7.091260   3.041573  -0.948137  -1.506683   4.911002 -11.956083 -53.425736 179.996900 -75.278431 179.999565  -0.550517  -7.957889   3.780160 -20.812738  -3.354535   3.782956  37.476044   0.016307   0.009735 -20.973630  -4.234195   1.906275   1.552625  -0.000398  -0.000473  13.634685  -0.766682   1.635542  64.150837  -0.024366   0.052343   7.028700   1.366129  -1.773177 -14.829496  -0.017760   0.039553
 -2.325913   0.878706   4.705159  -1.392140  -2.643465   0.003755   4.389266  -4.564332  -0.130820   2.856417  -5.675970   2.346128  -6.462396   1.601532  -2.071675   6.412873  -9.510000   3.962254  17.095606  -1.229558  50.041581 -179.977108  83.715832 179.979358  -0.336351   3.854884  -7.261744   3.125332  -0.685550  -1.795000   5.394850 -11.673133 -53.468401 179.986218 -76.217818 179.989265  -0.506888  -8.234688   3.810247 -19.733011  -3.068469   3.962971  38.344001   0.011330   0.006648 -22.560088  -4.348097   0.764974   1.550708  -0.000334  -0.000373  12.669595  -0.204021   1.950288  67.621714  -0.018104   0.061447   6.223986   1.678262  -1.648060 -13.856383  -0.017039   0.039494
 -2.325559   0.871359   4.720028  -1.529513  -3.060655   0.126039   4.445820  -4.295921  -0.028008   2.955054  -5.255914   2.463210  -6.443924   1.591769  -2.007993   6.229478  -9.173751   4.061620  16.450697  -0.913361  49.729573 -179.978854  83.793964 179.980677  -0.243186   3.836038  -7.443406   3.246298  -0.410004  -2.098396   5.887484 -11.371997 -53.508728 179.974948 -77.153958 179.978423  -0.481717  -8.235625   3.899487 -18.605509  -2.768854   4.101492  39.336145   0.007542   0.004169 -24.050091  -4.430702  -0.307042   1.460394  -0.001039  -0.000069  11.587560   0.322097   2.331444  70.917802  -0.012063   0.067988   5.476425   1.968700  -1.526351 -12.966045  -0.015926   0.038750
